<?xml version="1.0" encoding="utf-8"?>
<!-- Generator: Adobe Illustrator 23.0.1, SVG Export Plug-In . SVG Version: 6.00 Build 0)  -->
<svg version="1.1" id="Layer_1" xmlns="http://www.w3.org/2000/svg" xmlns:xlink="http://www.w3.org/1999/xlink" x="0px" y="0px"
	 viewBox="0 0 396.9 396.9" style="enable-background:new 0 0 396.9 396.9;" xml:space="preserve">
<style type="text/css">
	.st0{fill:#231F20;stroke:#FFFFFF;stroke-miterlimit:10;}
	.st1{fill:#2CB34B;stroke:#FFFFFF;stroke-miterlimit:10;}
	.st2{fill:none;stroke:#FFFFFF;stroke-miterlimit:10;}
	.st3{font-family:'Seravek-BoldItalic';}
	.st4{font-size:76.3742px;}
</style>
<title>logo</title>
<path class="st0" d="M110.4,82.6L49.7,138c-9.5,20.8-15.1,43.2-16.7,66c11.6,16.7,28.2,29.2,47.5,35.7l1.7,0.4
	c1.9,0.5,7.1,1.6,15.3,2.9c4.4,0.7,10.1,1.4,16.7,2l33.4-72.8c-7.7-4.4-14.6-10.1-20.4-16.8c-4.9-5.6-18-22.3-19.6-47
	C107.1,99.7,108.1,91,110.4,82.6z"/>
<path class="st0" d="M197.7,196.7c2.8,2.8,5.8,5.5,8.9,8c0,0,2,1.7,4.4,3.3c9.8,7,20.3,12.9,31.3,17.8l14.8,4.7l16.3-1
	c-0.6-3.1-1.2-6.1-1.8-9.2l-15-4.6v4.9h-9.1l-8.4-2.3l-19.5-17.8l-19.8-11L197.7,196.7z"/>
<polygon class="st1" points="216.7,197.9 239,218.2 247.4,220.5 256.5,220.5 255,214.8 "/>
<path class="st0" d="M192.8,200c-1.6,2.9-3,6-4.2,9.1c-1.2,3-2.1,6.2-2.8,9.4c3.6,3.7,7.5,7.5,11.9,11.4c3.9,3.5,7.8,6.6,11.4,9.5
	c-2.9,3.8-5.3,7.9-7.1,12.4c-1,2.5-1.8,5-2.4,7.6c5.9,4.7,13.2,7.2,20.8,7.2l15.6-37.8C220.2,221.4,205.6,211.7,192.8,200L192.8,200
	z"/>
<polygon class="st0" points="242.2,236.9 256.5,243.9 273.2,238.7 277.6,238.3 263.3,272.8 242.2,272.8 226.2,278.8 "/>
<path class="st0" d="M261.3,250.9l5.9-0.6l5,0.4"/>
<polyline class="st0" points="259.6,257.2 266,256.4 269.9,256.8 "/>
<polyline class="st0" points="257.5,263.5 264.8,262.7 267.5,262.7 "/>
<path class="st0" d="M218.7,271c0,0.1,0,0.3,0,0.4c-0.2,1.1-0.5,2.1-0.9,3.1c-0.7,2.7-1,5.5-0.8,8.2c0.1,1.9,0.4,3.7,0.9,5.5
	c0.4,1.8,1,3.5,1.6,5.2c-2-0.4-3.9-1-5.8-1.8c-2.3-1.1-4.6-2.5-6.6-4c-0.5-0.4-0.9-0.7-0.9-0.7l0,0c-2.1-3.4-3.9-6.9-5.4-10.6
	c-1.4-4.1-1.8-8.5-1.3-12.8c4.2,5,7.9,6.4,10.6,6.7C213.3,270.5,218.2,269.6,218.7,271z"/>
<path class="st0" d="M226,282.1c1.4,8,4.5,15.5,9.2,22.1c1,2,2.4,3.8,4,5.3c1.3,1.1,2.7,2,4.2,2.7c1,0,2,0.1,3,0.1
	c2.2,0.1,4.4,0.3,6.6,0.4c-3.7-11.9-7.4-23.9-11-35.8C236.4,277.6,231,279.3,226,282.1L226,282.1z"/>
<polyline class="st0" points="253,312.8 258.5,312.3 253,275.1 241.9,277 "/>
<path class="st0" d="M272.4,275.5c0.6,5.7,1.3,10.5,2.2,15.6c1.2,6.5,2.6,12.6,4,18.2c1.1-1.2,2.4-2.2,3.9-2.9l0.8-43.3h-6.4
	C275.4,267.2,273.9,271.4,272.4,275.5z"/>
<polygon class="st0" points="285.4,238.7 279.3,257.9 285.4,257.9 292.3,241.4 "/>
<path class="st0" d="M202.5,182.3c12.7,2.9,25.5,5.2,38.5,6.9c8.5,1.1,16.6,1.8,24.4,2.3c0-2.8,0-5.7,0-8.5l9.7-3.9
	c2.9,16.8,10,32.5,20.8,45.7c0.1,1.9,0.2,3.9,0.4,5.8C265,214.4,233.8,198.3,202.5,182.3z"/>
<path class="st0" d="M290.1,203.1c5.8,13.5,14.5,25.7,25.5,35.6c3-2.3,6-4.7,9-7.1c3-2.5,6-4.9,8.7-7.3
	c-6.8-9.4-11.4-20.2-13.5-31.6L290.1,203.1z"/>
<path class="st0" d="M326.3,188.7l17.6-0.6l-6.3,27.5c-1.8-2.2-3.4-4.6-4.8-7.1C329.3,202.4,327.1,195.7,326.3,188.7z"/>
<polyline class="st0" points="313.6,148.7 326.3,147 343.9,181.8 324.2,183.4 "/>
<path class="st0" d="M31.3,212.7c9.1,12.8,21.4,23,35.6,29.6c16.6,7.6,39.6,8.1,47.7,7.9c2.3,6.3,2.3,6.3,6.2,12.5l-66.5-4.8
	l-31.9,0.4c0.5-4.8,1.2-9.8,2.1-15C26.1,232.9,28.4,222.7,31.3,212.7z"/>
<polygon class="st0" points="147.6,17 206.1,96.3 253,144.6 292.3,188.1 300.2,183.4 306.2,168.2 306.2,162.2 275.3,132.1 
	195.6,61.7 165.9,30 "/>
<polygon class="st0" points="236.6,23.1 244.8,58.1 256.5,105.2 267.5,118.4 272.6,115.2 254.6,67.1 256.5,56.1 "/>
<path class="st0" d="M267.2,50.5l33.4,34.8l11.1,20.7l-3.4,10.5l-22.1,6l-24.6-54.8C263.5,61.9,265.3,56.2,267.2,50.5z"/>
<polygon class="st0" points="249.4,21.6 298.8,72.6 306.2,78.9 317.1,102.5 337.5,102.5 328.8,82.6 268.6,23.1 "/>
<path class="st0" d="M341,98.7c4.9-10,9.9-20,14.9-30l17.9-26.3L348,129.8c-2.1,6.3-4.2,12.5-6.3,18.8c-1.3,3.1-2.7,6.2-4.1,9.3l0,0
	l-7.4-16.9l0,0l-10-1.5l0,0l5.9-8l0,0c9.1-0.9,11.5-2.2,11.5-2.2c2.9-1.9,5.1-4.7,6.1-8c0.4-1.3,0.9-3.3,0.3-8.9
	C343.4,107.7,342.4,103.1,341,98.7z"/>
<polygon class="st0" points="320.1,109.6 337.5,109.6 335.1,123.2 320.1,123.2 "/>
<path class="st0" d="M145.6,222.6c-4.7,9.9-9.5,19.8-14.2,29.7c11.5,12.8,24.9,23.8,39.7,32.4c5,0.2,10.4,0.6,16,1.4
	c4.4,0.6,8.6,1.2,12.6,2l-8.1-13.2c-2.1-3.1-3.8-6.5-4.7-10.2c-2.6-10.9,3.6-20.8,5.8-24C177.8,232.5,162,226.3,145.6,222.6
	L145.6,222.6z"/>
<path class="st0" d="M147.9,216.5c5.3-16.7,14.6-31.9,27.1-44.2c5.4,6.4,12.1,11.5,19.7,15l-8,3.1l-3,1.2c0,0-11.8,12.2-13.5,27
	c-0.2,1.7-0.3,3.5-0.2,5.3C162.7,221.3,155.3,218.9,147.9,216.5z"/>
<path class="st0" d="M147.1,104.5c16.7,10.5,33.5,21.1,50.3,31.9c7.8,5,15.5,9.9,23.2,14.9l13.3,27.7c-13.7,0-27.3-2.1-40.3-6.2
	c-19.9-7.2-36.6-21-47.5-39.2c-2.1-3.4-3.8-7-5.3-10.7C142.9,116.8,145,110.6,147.1,104.5z"/>
<path class="st0" d="M67.4,65.2L50.9,50.5l5.8-8.1l84-11.2l39.2,43.5l5.9,11.8L67.4,65.2z"/>
<path class="st0" d="M116.4,81.3c-10.3,31,1.1,65,27.8,83.6l20.4,0.5c-8.1-3.4-15.3-8.9-20.8-15.8c-7.5-7.2-12.5-16.6-14.5-26.8
	c-1-5.5-1-11-0.1-16.5c0.9-2.6,2.1-5.2,3.5-7.6c1.6-3,3.8-5.6,6.3-7.9c2.3-1.9,4.8-3.3,7.6-4.3L116.4,81.3z"/>
<polygon class="st0" points="173.6,31.1 229.6,26.9 245.3,91.7 237.7,91.7 "/>
<path class="st0" d="M195.1,96c2.8,1.9,5.5,4.1,7.9,6.5l31.2,28.4L220.8,144l-69.3-44.4l0.5-10.8l15.2-2.2l0,0
	c5.6,0.5,11.2,1.7,16.5,3.6C187.7,91.7,191.6,93.7,195.1,96z"/>
<polygon class="st0" points="229.6,150.4 236.6,141.5 253,157.8 239.5,174 "/>
<line class="st2" x1="256.5" y1="230.4" x2="256.5" y2="243.9"/>
<path class="st0" d="M277.9,238.1"/>
<path class="st0" d="M273.7,228.9c0,0.3,0,0.6,0,0.8l4.1,7.5c0,0.2,0,0.3,0,0.5"/>
<path class="st0" d="M256.5,215.6"/>
<text transform="matrix(1.0467 0 0 1 22.3999 380.6671)" class="st3 st4">PYSHEEET</text>
</svg>
